<?xml version="1.0" standalone="no"?>
<!DOCTYPE svg PUBLIC "-//W3C//DTD SVG 20010904//EN"
 "http://www.w3.org/TR/2001/REC-SVG-20010904/DTD/svg10.dtd">
<svg version="1.0" xmlns="http://www.w3.org/2000/svg"
 width="1928.000000pt" height="1928.000000pt" viewBox="0 0 1928.000000 1928.000000"
 preserveAspectRatio="xMidYMid meet">
<metadata>
Created by potrace 1.14, written by Peter Selinger 2001-2017
</metadata>
<g transform="translate(0.000000,1928.000000) scale(0.100000,-0.100000)"
fill="#000000" stroke="none">
<path d="M7920 12962 c-25 -10 -57 -25 -73 -36 -26 -18 -225 -217 -702 -701
-119 -121 -321 -326 -449 -455 -128 -129 -236 -241 -240 -247 -4 -8 41 -61
126 -147 73 -74 374 -378 668 -676 639 -649 573 -585 639 -617 70 -35 177 -38
256 -7 54 20 124 87 156 148 27 50 34 85 32 163 -2 108 -29 151 -225 349 -95
96 -295 299 -443 450 -149 151 -277 274 -285 274 -7 0 -21 -6 -29 -13 -18 -15
-219 -143 -211 -134 3 4 215 218 470 478 256 259 506 512 555 562 116 119 142
154 159 219 39 154 -33 313 -172 378 -61 30 -169 35 -232 12z"/>
<path d="M10040 12963 c-76 -25 -142 -83 -179 -158 -37 -75 -81 -178 -81 -191
0 -8 -4 -14 -10 -14 -5 0 -10 -5 -10 -11 0 -10 -52 -138 -100 -244 -34 -77
-53 -120 -56 -130 -1 -5 -16 -41 -34 -80 -17 -38 -35 -79 -39 -90 -5 -11 -16
-36 -25 -56 -14 -32 -73 -170 -99 -229 -6 -14 -11 -27 -11 -30 -1 -3 -9 -21
-18 -40 -9 -19 -37 -84 -63 -145 -25 -60 -55 -127 -65 -150 -10 -22 -37 -85
-60 -140 -24 -55 -50 -116 -58 -135 -9 -19 -16 -37 -17 -40 -3 -9 -24 -59 -46
-108 -12 -26 -28 -63 -36 -82 -17 -40 -20 -46 -98 -225 -31 -71 -57 -134 -59
-140 -1 -5 -4 -14 -7 -20 -41 -69 -38 -188 6 -275 56 -109 161 -174 280 -173
76 1 82 2 136 25 65 28 119 87 160 173 41 88 70 155 75 170 3 12 296 690 324
752 11 24 20 45 20 48 0 2 12 30 26 62 29 63 31 68 97 223 25 58 56 131 71
162 14 31 26 59 26 62 0 2 14 34 30 69 17 36 30 68 30 71 0 3 13 34 29 68 15
35 54 124 86 198 32 74 65 151 73 170 9 19 16 37 17 40 0 3 8 21 17 40 70 149
81 185 82 265 0 58 -5 91 -18 120 -11 22 -19 43 -18 46 3 16 -92 101 -137 124
-28 14 -51 22 -51 19 0 -4 -6 -2 -12 4 -19 15 -127 12 -178 -5z"/>
<path d="M11225 12973 c-90 -24 -174 -94 -215 -178 -40 -84 -30 -245 20 -310
29 -37 158 -170 933 -955 122 -123 211 -217 197 -207 -14 9 -39 24 -56 32 -17
9 -41 25 -52 35 -12 11 -24 20 -28 20 -3 0 -26 13 -49 29 l-43 29 -444 -449
c-509 -515 -503 -508 -503 -648 0 -69 5 -95 23 -133 32 -64 87 -120 151 -154
47 -24 66 -28 135 -28 134 0 135 1 514 383 290 292 1052 1065 1060 1075 3 3
-86 94 -871 889 -566 573 -560 568 -685 573 -37 1 -76 0 -87 -3z"/>
<path d="M13390 8949 c-19 -5 -44 -10 -56 -13 -32 -6 -126 -47 -156 -68 -14
-10 -29 -18 -32 -18 -21 0 -137 -120 -181 -186 -36 -54 -89 -176 -100 -229
-25 -124 -26 -227 -5 -330 34 -167 130 -322 260 -423 39 -31 153 -91 180 -96
14 -2 25 -5 25 -6 0 -2 22 -8 65 -16 97 -21 294 3 357 42 12 8 29 14 38 14 8
0 15 3 15 8 0 4 13 13 28 20 16 7 42 25 59 40 17 15 42 36 55 48 27 24 78 82
78 88 0 3 14 25 31 50 34 51 83 178 94 246 11 65 12 174 3 233 -5 29 -9 60 -9
69 -1 31 -64 181 -101 238 -88 137 -228 239 -383 280 -59 15 -215 20 -265 9z
m241 -302 c202 -99 279 -384 168 -614 -28 -58 -110 -142 -162 -167 -168 -79
-362 1 -444 184 -64 142 -55 326 21 454 93 156 269 216 417 143z"/>
<path d="M3 8925 c-2 -6 -2 -63 -1 -126 l3 -114 66 3 67 3 -2 -433 -1 -433
-65 0 -65 0 -3 -122 c-2 -112 -1 -123 15 -124 88 -4 700 0 738 5 98 14 204 82
264 170 49 71 69 145 67 243 -1 104 -26 162 -92 222 l-42 37 38 36 c85 83 111
228 64 367 -25 73 -35 90 -94 152 -46 48 -102 81 -175 104 -54 17 -97 19 -419
20 -249 0 -360 -3 -363 -10z m688 -251 c24 -12 63 -59 64 -76 0 -3 3 -10 8
-14 14 -14 7 -89 -12 -124 -34 -66 -63 -77 -197 -76 l-119 1 0 140 c-1 77 1
145 3 152 5 17 219 15 253 -3z m5 -544 c26 -10 73 -53 75 -69 0 -3 3 -15 6
-26 10 -42 9 -71 -4 -105 -8 -19 -14 -37 -15 -40 -2 -15 -39 -51 -59 -58 -13
-5 -78 -9 -144 -8 l-120 1 0 157 0 156 116 1 c64 1 130 -4 145 -9z"/>
<path d="M1238 8865 c-2 -38 -1 -99 2 -135 l5 -65 62 0 c34 0 65 -3 68 -7 6
-5 8 -379 6 -755 l-1 -83 -65 4 c-36 2 -68 0 -70 -4 -7 -12 -9 -230 -2 -237 8
-8 1051 -8 1064 0 8 5 12 452 5 477 -1 3 -65 5 -142 5 -133 0 -140 -1 -141
-20 -1 -11 -2 -65 -3 -120 l-1 -100 -172 -1 -173 0 -1 25 c-3 89 0 213 4 218
3 3 2 15 -3 27 -4 13 -5 27 -2 33 4 5 54 9 117 9 168 -2 153 -16 151 132 l-1
127 -130 0 c-127 1 -130 2 -129 23 0 12 -2 22 -5 22 -6 0 -4 144 1 200 l3 25
168 0 c140 0 168 -2 172 -15 2 -8 3 -52 1 -98 l-2 -82 145 2 146 3 2 35 c0 19
2 37 3 40 1 3 1 10 0 15 -1 6 -3 91 -4 190 l-1 180 -537 0 -537 0 -3 -70z"/>
<path d="M2479 8930 c-1 -3 -2 -58 -3 -122 l-2 -118 26 -1 c14 -1 37 0 53 1
15 1 28 -2 28 -7 1 -4 2 -198 3 -430 1 -278 -2 -423 -9 -424 -9 -2 -49 -5 -86
-8 -14 -1 -16 -17 -15 -115 0 -63 4 -118 8 -122 6 -5 359 -9 484 -5 20 1 21 6
23 121 1 66 -2 120 -6 121 -5 1 -30 2 -58 3 l-50 1 0 304 c0 166 3 305 6 307
3 2 12 -9 20 -24 8 -15 22 -36 32 -46 9 -11 17 -26 17 -33 0 -7 5 -13 10 -13
6 0 10 -5 10 -10 0 -12 41 -73 53 -78 4 -2 7 -8 7 -12 0 -5 62 -105 138 -222
76 -117 141 -221 145 -230 3 -10 11 -18 17 -18 5 0 10 -6 10 -12 0 -7 23 -46
50 -87 l50 -74 133 1 c72 0 139 1 147 1 13 1 15 68 14 544 0 298 2 548 4 555
3 7 16 12 31 12 14 -1 38 -2 52 -1 l25 1 0 122 -1 122 -245 1 c-135 1 -251 -1
-257 -3 -10 -3 -13 -37 -13 -123 l0 -119 43 -1 c23 -1 48 -1 55 0 6 1 13 -4
13 -11 4 -36 5 -604 1 -611 -3 -7 -104 136 -107 153 -1 5 -58 97 -72 116 -4 5
-13 19 -20 30 -38 63 -258 410 -262 414 -10 8 -42 64 -48 83 -3 9 -9 17 -14
17 -5 0 -9 6 -9 14 0 36 -28 40 -231 41 -110 0 -200 -2 -200 -5z"/>
<path d="M3967 8925 c-2 -5 -3 -66 -3 -135 l1 -125 40 -2 c22 -1 50 -2 63 -2
l22 -1 0 -458 c-1 -423 -2 -463 -19 -508 -21 -53 -91 -196 -101 -204 -3 -3
-20 -29 -38 -57 -31 -52 -31 -53 -9 -54 80 -4 166 -10 191 -13 36 -6 80 39
170 174 104 157 98 116 99 653 l0 467 31 1 c17 1 38 1 47 0 13 -1 15 16 14
131 -1 73 -3 135 -4 138 -2 10 -501 5 -504 -5z"/>
<path d="M5000 8925 c-4 -5 -78 -224 -165 -485 -86 -261 -160 -482 -163 -490
-3 -8 -6 -17 -7 -20 0 -3 -9 -28 -18 -56 l-18 -51 -45 2 c-25 1 -47 -2 -50 -6
-6 -11 -6 -230 0 -236 7 -8 495 -7 503 0 10 10 9 228 -1 235 -5 3 -37 6 -70 6
-34 1 -60 5 -60 11 1 6 14 49 28 96 l27 86 207 -1 207 -1 27 -75 c40 -113 39
-118 -27 -116 -31 1 -59 -1 -64 -4 -4 -3 -8 -58 -8 -122 l0 -118 26 -1 c32 -1
426 -1 462 0 l27 1 -2 122 -1 122 -49 0 c-44 1 -50 4 -57 26 -38 122 -182 569
-189 585 -5 11 -41 121 -80 245 -39 124 -74 232 -79 240 -6 12 -39 14 -180 15
-104 0 -176 -4 -181 -10z m175 -263 c1 -7 57 -187 82 -262 8 -25 16 -49 17
-55 1 -5 8 -27 15 -48 7 -21 10 -41 7 -44 -6 -6 -222 -11 -247 -5 -18 4 -23
-18 77 309 32 104 48 137 49 105z"/>
<path d="M5955 8932 c-19 -3 -20 -10 -19 -118 1 -63 3 -117 6 -119 2 -3 31 -6
64 -7 l59 -3 0 -423 c0 -233 -2 -427 -5 -431 -3 -4 -21 -8 -40 -8 -19 0 -46
-1 -60 -2 l-25 -1 2 -116 c1 -64 4 -118 7 -121 4 -5 377 -7 483 -4 21 1 21 5
22 121 0 85 -4 120 -12 121 -7 1 -29 2 -49 2 -32 0 -38 3 -39 21 -5 171 -2
706 4 706 4 0 12 -12 18 -27 13 -36 76 -186 99 -238 10 -22 39 -92 65 -155 26
-63 55 -133 65 -155 9 -22 49 -117 89 -211 l72 -170 126 0 125 1 130 320 c71
176 132 327 135 335 3 8 33 83 65 165 33 83 63 156 67 164 5 7 8 -159 7 -370
l-1 -384 -37 0 c-20 0 -40 -4 -45 -8 -12 -12 -10 -237 2 -238 13 -1 442 -1
475 0 l25 1 -2 112 c-1 62 -2 118 -3 124 0 7 -22 10 -60 8 -50 -2 -60 1 -61
15 0 9 -1 203 -1 431 l-1 415 54 3 c30 2 58 4 63 6 10 2 15 235 6 237 -3 1
-128 2 -279 3 l-273 1 -22 -30 c-11 -16 -19 -31 -17 -33 3 -3 -46 -142 -73
-207 -7 -16 -23 -59 -36 -95 -13 -36 -26 -69 -30 -75 -3 -5 -13 -30 -20 -55
-7 -25 -17 -49 -20 -55 -4 -5 -13 -28 -20 -50 -7 -22 -16 -44 -20 -50 -5 -5
-8 -12 -9 -15 0 -6 -11 -40 -21 -65 -4 -11 -16 -42 -25 -70 -10 -27 -22 -54
-26 -59 -5 -6 -9 -17 -9 -25 -1 -9 -9 -33 -19 -54 l-18 -38 -18 48 c-16 43
-45 116 -80 198 -21 47 -191 468 -242 595 -25 63 -50 119 -55 125 -8 9 -488
15 -543 7z"/>
<path d="M8037 8925 c-3 -9 -1 -222 2 -235 0 -3 31 -4 69 -2 l67 3 0 -433 0
-433 -70 -1 -70 -1 0 -121 0 -122 40 -1 c43 -1 527 -1 535 0 3 1 5 55 6 121
l1 120 -26 1 c-14 1 -46 2 -71 3 l-45 1 -1 433 0 432 71 0 71 0 0 120 c0 66
-2 120 -5 121 -3 1 -133 2 -288 3 -183 1 -284 -2 -286 -9z"/>
<path d="M8788 8932 l-27 -3 1 -120 0 -119 27 -1 c14 -1 38 0 54 1 23 1 27 -2
28 -24 0 -14 0 -195 0 -401 0 -206 0 -390 0 -409 l-1 -34 -51 2 c-28 1 -53 -2
-55 -6 -3 -4 -4 -27 -4 -50 0 -24 0 -52 0 -63 0 -83 1 -119 5 -123 4 -4 367
-6 480 -3 l30 1 0 117 c0 65 -3 120 -7 123 -3 3 -29 5 -56 4 l-50 0 0 315 c0
174 3 310 6 302 2 -8 11 -21 18 -30 24 -28 215 -325 221 -343 3 -10 9 -18 14
-18 5 0 9 -4 9 -9 0 -5 36 -63 80 -130 44 -66 80 -125 80 -130 0 -5 3 -11 8
-13 9 -4 52 -65 52 -75 1 -4 18 -32 38 -62 l38 -54 142 1 c79 0 146 2 149 6 3
3 6 253 6 555 l0 548 49 0 c27 0 51 3 54 6 7 7 11 237 4 238 -3 1 -117 2 -253
3 -159 1 -251 -2 -255 -9 -3 -5 -6 -61 -7 -123 0 -124 -5 -115 73 -112 34 1
42 -2 42 -17 3 -107 0 -606 -3 -609 -4 -4 -44 53 -56 80 -2 4 -25 41 -52 82
-27 40 -49 78 -49 84 0 5 -4 10 -10 10 -5 0 -10 7 -10 15 0 8 -4 15 -10 15 -5
0 -10 4 -10 9 0 6 -45 80 -100 166 -55 86 -100 160 -100 166 0 5 -4 9 -8 9 -5
0 -16 15 -26 33 -23 43 -110 183 -123 197 -4 5 -343 7 -385 2z"/>
<path d="M10283 8927 c-3 -5 -5 -61 -6 -124 l0 -116 69 -1 69 -1 0 -430 0
-430 -62 0 c-34 0 -65 -3 -69 -7 -4 -4 -7 -60 -7 -124 l0 -117 364 1 c378 0
421 4 507 44 42 20 113 82 152 133 36 47 64 148 64 230 0 44 -2 89 -5 100 -7
29 -51 105 -61 105 -5 0 -6 5 -3 10 3 6 3 10 -2 10 -4 0 -21 11 -36 24 l-28
24 40 37 c54 50 83 122 86 210 3 124 -33 220 -115 304 -49 50 -149 106 -210
117 -53 10 -741 11 -747 1z m699 -259 c33 -21 68 -94 68 -139 0 -46 -38 -110
-76 -129 -22 -11 -61 -15 -144 -15 l-115 0 -1 145 c0 93 3 148 10 152 6 4 61
6 122 5 83 -2 117 -7 136 -19z m8 -545 c59 -35 85 -109 64 -188 -6 -27 -17
-51 -23 -53 -6 -2 -11 -9 -11 -16 0 -29 -63 -43 -185 -42 l-120 1 -1 150 c0
94 4 153 10 158 20 14 239 6 266 -10z"/>
<path d="M11526 8924 c-7 -6 -11 -55 -10 -124 l1 -113 70 1 71 1 0 -433 0
-433 -57 0 c-31 -1 -63 -1 -71 -2 -12 -1 -15 -21 -14 -116 0 -63 3 -118 7
-121 3 -4 128 -7 278 -7 288 0 297 2 279 47 -4 12 -4 30 0 41 4 11 4 29 0 40
-4 11 -4 29 0 41 5 11 4 27 0 34 -4 7 -6 19 -3 27 6 15 8 14 -67 17 l-55 1 0
147 0 147 101 -3 c84 -3 110 -8 143 -27 23 -12 41 -26 41 -30 0 -4 7 -15 16
-24 17 -16 41 -93 49 -160 3 -22 7 -47 9 -55 6 -30 16 -86 21 -120 3 -19 8
-53 11 -75 3 -22 8 -42 10 -44 3 -3 261 -4 362 -2 l32 1 -2 130 c-1 72 -5 130
-8 131 -3 0 -26 2 -52 2 -52 2 -57 5 -63 36 -5 20 -9 38 -19 79 -3 9 -9 32
-15 50 -5 17 -8 32 -5 32 15 0 -68 129 -94 147 l-33 21 63 43 c107 71 151 156
151 295 1 62 -4 93 -23 139 -24 60 -33 73 -80 124 -26 28 -130 96 -130 85 0
-4 -6 -2 -12 3 -13 10 -50 21 -98 30 -58 10 -794 8 -804 -3z m702 -247 c70
-18 121 -75 123 -138 3 -65 -1 -79 -31 -113 -49 -56 -95 -65 -308 -67 -23 0
-46 2 -50 5 -6 3 -9 288 -3 318 1 8 234 4 269 -5z"/>
<path d="M14342 8930 c-4 -3 -8 -58 -8 -122 0 -99 3 -118 16 -119 8 -1 38 -1
66 0 42 1 52 -3 56 -17 3 -14 2 -780 -1 -833 -1 -13 -13 -16 -66 -15 -36 1
-66 -1 -66 -4 -7 -28 -2 -233 5 -237 18 -12 731 -5 777 7 210 55 340 271 295
490 -10 44 -59 118 -99 149 l-32 24 43 44 c64 66 83 120 83 236 0 107 -44 208
-126 289 -40 39 -136 91 -195 103 -39 9 -737 14 -748 5z m688 -253 c20 -10 59
-67 69 -104 16 -54 -1 -114 -44 -157 -29 -29 -26 -28 -177 -30 l-108 -1 0 151
0 151 123 -2 c67 -1 129 -5 137 -8z m6 -547 c12 -5 35 -25 50 -46 52 -68 35
-197 -32 -241 -23 -15 -50 -18 -156 -19 l-128 0 0 157 0 158 122 0 c67 -1 132
-5 144 -9z"/>
<path d="M15582 8930 c-4 -3 -8 -58 -8 -122 0 -99 3 -118 16 -119 8 0 39 0 68
1 l52 1 1 -33 c1 -40 1 -772 0 -809 -1 -26 -2 -27 -62 -25 -33 1 -63 -3 -67
-9 -11 -17 -10 -225 1 -232 14 -9 696 -7 749 2 52 9 118 34 136 52 7 7 17 13
22 13 21 0 100 93 129 152 34 71 42 100 45 178 4 99 -21 165 -89 231 l-45 45
44 47 c94 97 105 282 25 424 -25 44 -105 133 -120 133 -4 0 -14 6 -21 13 -7 8
-43 24 -78 37 -63 22 -77 23 -428 24 -200 1 -366 -1 -370 -4z m695 -264 c64
-42 84 -133 46 -206 -35 -68 -50 -73 -190 -76 l-123 -2 0 147 c0 81 3 150 6
153 3 4 56 6 117 5 96 0 117 -3 144 -21z m-2 -536 c13 -5 35 -25 50 -45 50
-64 38 -179 -22 -232 -30 -27 -25 -26 -175 -28 l-118 -1 0 157 0 158 121 0
c67 0 132 -4 144 -9z"/>
<path d="M16819 8930 c-1 -3 -3 -62 -4 -132 -2 -88 1 -129 9 -130 10 -1 44 -3
106 -7 l25 -1 0 -417 0 -418 -65 0 c-36 0 -68 -4 -71 -10 -3 -5 -5 -61 -5
-124 l1 -114 538 -1 537 -1 1 28 c3 148 0 449 -5 454 -4 4 -70 7 -147 8 l-140
0 4 -22 c2 -13 1 -23 -3 -23 -4 0 -4 -16 0 -35 4 -19 4 -37 -1 -40 -4 -3 -4
-16 1 -29 4 -12 4 -29 0 -36 -5 -8 -4 -22 1 -31 5 -10 6 -20 2 -22 -5 -2 -84
-3 -178 -3 l-170 1 0 155 0 155 120 1 c66 1 127 2 135 3 12 1 15 21 14 119 0
65 -3 123 -7 128 -3 6 -57 10 -127 10 -71 -1 -125 3 -129 9 -9 10 -13 203 -6
240 4 19 12 20 167 19 198 -2 181 0 175 -24 -3 -11 -2 -20 1 -20 6 0 7 -68 2
-95 -2 -6 -1 -13 0 -17 1 -5 3 -14 4 -20 1 -10 38 -13 144 -15 140 -1 142 -1
143 20 1 30 1 386 0 417 l-1 25 -535 0 c-294 0 -536 -2 -536 -5z"/>
<path d="M17993 8933 c-8 -3 -8 -232 0 -240 3 -2 30 -4 59 -4 40 0 58 -5 67
-17 6 -9 92 -132 190 -273 l178 -256 -1 -159 -1 -159 -55 -1 c-30 -1 -64 -2
-75 -3 -19 -1 -20 -8 -19 -116 0 -63 4 -118 7 -122 8 -7 586 -8 593 0 7 7 7
224 0 235 -2 4 -38 7 -79 5 -64 -2 -76 1 -79 15 -2 9 -3 84 -3 166 1 142 3
150 24 168 13 10 20 18 16 18 -3 0 0 6 7 14 7 7 20 24 28 36 15 22 47 65 63
85 4 6 26 35 48 65 22 30 48 66 59 80 11 14 51 69 91 123 39 53 76 97 82 96 7
-1 29 -1 50 0 l38 1 -3 122 -3 123 -285 0 -285 0 -3 -125 -3 -125 61 3 c33 1
60 -1 60 -5 -1 -4 -12 -26 -25 -48 -14 -22 -28 -47 -32 -55 -3 -8 -9 -17 -12
-20 -6 -5 -12 -15 -60 -95 -16 -27 -35 -58 -43 -68 -13 -17 -15 -17 -28 10 -8
15 -36 63 -62 105 -27 43 -48 80 -48 84 0 3 -8 18 -18 32 -35 50 -35 62 1 60
83 -2 77 -12 77 122 0 89 -3 120 -12 121 -26 3 -558 4 -565 2z"/>
<path d="M2020 6794 c-83 -41 -106 -144 -47 -208 13 -13 41 -31 62 -39 22 -8
49 -18 60 -23 11 -4 23 -7 26 -6 18 3 60 -47 64 -75 3 -26 -2 -37 -27 -58 -16
-14 -33 -25 -36 -26 -4 0 -15 -2 -25 -4 -29 -5 -91 15 -107 36 -15 20 -16 19
-40 -6 -13 -13 -22 -26 -19 -28 57 -45 77 -52 144 -52 108 0 165 44 170 130 5
77 -28 112 -149 156 -54 19 -74 32 -84 53 -39 78 62 143 147 94 31 -17 35 -18
58 -3 29 19 24 29 -28 56 -45 22 -126 24 -169 3z"/>
<path d="M2889 6806 c-3 -3 -14 -7 -25 -9 -58 -11 -114 -59 -150 -127 -28 -52
-26 -181 3 -235 47 -89 129 -135 233 -132 100 4 177 51 221 135 31 62 32 186
0 230 -11 17 -21 34 -21 39 0 16 -59 63 -103 82 -40 17 -146 28 -158 17z m143
-72 c42 -22 53 -33 79 -83 26 -50 28 -129 5 -182 -15 -37 -84 -104 -108 -107
-106 -13 -147 -2 -200 51 -80 81 -74 218 14 299 16 16 41 31 56 34 15 3 32 7
37 9 22 6 87 -5 117 -21z"/>
<path d="M3806 6802 c-3 -2 -36 -5 -73 -6 l-68 -1 -1 -241 -1 -241 29 -1 c31
-1 32 3 28 156 l-1 62 114 0 114 0 -1 27 -1 27 -110 1 -110 0 -3 74 c-1 41 2
77 7 81 6 3 59 5 120 4 96 -1 110 1 114 17 7 26 -5 35 -43 34 -19 0 -52 3 -72
6 -21 3 -40 4 -42 1z"/>
<path d="M4606 6803 c-3 -3 -58 -6 -123 -7 l-118 -1 0 -25 c0 -24 2 -25 72
-25 39 0 75 -4 80 -8 4 -5 8 -102 8 -215 l0 -207 28 -3 c17 -2 27 2 28 10 0 7
1 105 1 218 l1 205 78 -1 c65 0 78 3 82 17 7 27 -6 38 -43 35 -19 -1 -47 1
-62 5 -14 4 -29 5 -32 2z"/>
<path d="M7116 6802 c-4 -4 -15 -7 -24 -7 -15 0 -17 -22 -17 -238 0 -132 3
-241 8 -244 4 -3 18 -2 30 1 21 5 22 10 20 111 l-1 105 37 0 c37 0 39 -2 103
-107 59 -97 69 -108 97 -111 17 -2 31 -1 31 3 0 12 -34 71 -81 142 l-48 73 44
20 c51 23 76 62 77 121 1 81 -53 120 -173 124 -42 1 -81 5 -86 8 -6 4 -13 3
-17 -1z m157 -66 c36 -7 57 -37 57 -79 0 -28 -9 -41 -38 -56 -23 -12 -126 -22
-148 -14 -10 4 -18 138 -9 153 5 8 89 5 138 -4z"/>
<path d="M8032 6802 c-6 -4 -46 -7 -89 -6 l-78 2 2 -222 c1 -121 2 -231 2
-243 1 -21 3 -21 158 -20 154 2 156 2 159 25 5 27 16 24 -136 27 l-125 2 0 74
c-1 41 1 79 3 86 3 8 37 12 115 11 l111 -1 1 27 c2 30 9 28 -127 27 -54 0 -98
3 -99 7 -1 4 -2 37 -3 74 -2 78 -9 75 147 73 88 -2 97 0 97 17 0 10 0 21 0 26
0 4 -24 7 -53 7 -29 1 -57 4 -63 7 -5 4 -15 3 -22 0z"/>
<path d="M10056 6803 c-4 -4 -17 -8 -29 -8 l-22 0 0 -240 0 -240 158 -1 c148
-2 157 -1 157 17 0 10 1 22 3 27 1 4 -56 7 -128 7 l-130 1 0 84 0 85 80 2 c44
1 97 2 117 2 32 1 36 4 33 22 -3 12 -6 24 -9 26 -3 3 -53 6 -113 7 l-108 1 -1
75 -1 75 123 0 124 -1 0 26 0 26 -117 0 c-65 -1 -121 2 -124 7 -3 4 -9 4 -13
0z"/>
<path d="M13923 6792 c-58 -24 -108 -69 -135 -120 -18 -36 -22 -60 -22 -116 2
-106 39 -172 126 -225 69 -41 228 -37 297 8 17 11 23 229 6 239 -17 11 -145 9
-154 -2 -5 -6 -8 -19 -8 -28 0 -15 10 -18 56 -18 l56 0 0 -72 c0 -71 -1 -73
-30 -87 -40 -19 -122 -21 -165 -4 -42 18 -86 58 -106 95 -14 28 -26 133 -16
143 3 3 7 12 8 20 5 31 61 95 98 112 60 27 136 23 182 -9 l37 -27 18 20 c25
28 15 44 -39 66 -61 25 -155 28 -209 5z"/>
<path d="M16180 6802 c-8 -3 -17 -8 -20 -13 -4 -6 -5 -449 -1 -470 1 -7 277
-10 302 -3 9 2 15 14 14 27 -2 22 -4 22 -131 22 l-129 1 0 84 0 85 55 2 c30 1
82 2 115 2 57 1 60 2 61 26 2 19 -3 25 -20 26 -11 0 -64 1 -116 2 l-95 2 -1
72 c-1 83 -10 79 146 78 97 -1 115 6 100 35 -7 13 -22 17 -65 16 -30 -1 -55 3
-55 7 0 6 -5 6 -12 0 -14 -9 -107 -11 -123 -1 -6 3 -17 3 -25 0z"/>
<path d="M16950 6797 l-24 -12 1 -215 c1 -118 2 -226 2 -239 l1 -23 123 4
c136 5 172 16 228 69 43 41 69 103 69 167 0 101 -39 173 -118 219 -39 23 -57
27 -142 28 -53 1 -101 5 -106 8 -6 3 -21 0 -34 -6z m257 -83 c81 -47 108 -167
59 -258 -41 -75 -109 -97 -266 -87 -23 1 -23 363 0 372 8 3 48 4 89 3 58 -3
84 -9 118 -30z"/>
<path d="M5130 6796 c0 -3 64 -225 85 -296 9 -30 25 -85 36 -122 19 -64 21
-68 50 -68 29 0 42 17 53 69 2 9 6 23 9 31 6 14 44 148 52 180 2 8 4 15 5 15
1 0 3 9 5 20 2 11 10 38 18 59 l13 39 28 -94 c15 -52 28 -98 30 -104 1 -5 9
-30 16 -55 16 -54 17 -59 24 -85 12 -55 26 -75 50 -75 30 0 39 14 65 106 10
38 31 110 46 159 34 114 55 185 60 207 3 14 -2 17 -27 15 -18 -1 -32 -8 -33
-17 -2 -8 -22 -80 -45 -160 -23 -80 -43 -155 -45 -167 -9 -65 -22 -52 -54 59
-18 62 -33 118 -35 123 -1 6 -13 45 -25 87 -22 73 -25 77 -53 76 -16 -1 -33
-8 -37 -17 -8 -14 -68 -212 -76 -251 -2 -8 -4 -15 -5 -15 -1 0 -3 -7 -5 -15
-2 -8 -10 -35 -17 -60 l-14 -45 -28 95 c-15 52 -30 109 -33 125 -3 17 -8 37
-13 45 -4 8 -10 32 -14 53 -12 65 -25 84 -57 85 -16 0 -29 0 -29 -2z"/>
<path d="M6371 6785 c-4 -5 -25 -50 -46 -100 -21 -49 -48 -112 -60 -140 -58
-128 -95 -217 -95 -226 0 -6 12 -9 27 -7 22 2 33 13 50 48 13 25 23 50 23 57
0 12 146 22 218 15 32 -3 47 -24 75 -104 7 -19 67 -26 67 -9 0 6 -22 63 -50
128 -27 65 -50 123 -50 130 0 6 -3 13 -7 15 -5 2 -19 30 -32 63 -52 130 -61
145 -88 143 -13 -2 -28 -7 -32 -13z m109 -255 l18 -45 -87 1 c-47 1 -92 2 -98
3 -9 1 -6 15 9 49 11 26 24 56 29 67 4 11 17 42 30 69 l22 49 30 -74 c16 -41
37 -94 47 -119z"/>
<path d="M9215 6791 c-2 -4 -4 -114 -4 -244 l0 -236 27 2 27 2 3 108 3 107 37
0 c36 0 40 -3 77 -67 22 -37 42 -71 44 -76 16 -41 49 -72 79 -75 38 -4 39 2 8
49 -14 20 -33 51 -44 70 -11 19 -29 50 -41 71 l-22 36 28 7 c109 24 126 189
25 232 -39 17 -238 28 -247 14z m215 -61 c28 -15 42 -47 35 -80 -10 -47 -34
-60 -119 -64 l-76 -3 0 77 c0 42 2 79 5 82 9 9 133 0 155 -12z"/>
<path d="M11386 6567 c1 -128 2 -238 3 -244 0 -7 12 -13 25 -13 13 0 26 6 28
13 3 10 3 411 -1 458 -1 10 -11 16 -28 17 l-28 1 1 -232z"/>
<path d="M11939 6786 c-1 -13 -1 -434 0 -459 1 -14 8 -18 29 -15 l27 3 0 198
c0 108 1 197 2 197 2 0 31 -61 58 -125 7 -16 22 -50 33 -75 11 -25 34 -80 52
-122 23 -57 37 -78 50 -78 11 0 22 10 26 23 4 12 17 45 30 72 24 54 108 247
110 255 11 35 17 50 23 50 3 0 5 -90 5 -199 l-2 -200 27 4 c14 1 29 3 33 4 4
0 3 13 -1 29 -4 15 -6 38 -4 52 4 32 3 112 -2 120 -2 3 0 12 4 18 4 7 5 33 1
57 -4 27 -3 45 3 45 5 0 4 6 -2 14 -7 8 -8 17 -3 20 5 3 6 23 2 46 -4 22 -3
40 2 40 5 0 4 8 -1 18 -7 13 -21 19 -48 19 l-38 0 -59 -136 c-33 -75 -69 -157
-80 -183 -12 -27 -24 -48 -27 -48 -4 0 -17 24 -29 53 -38 91 -51 120 -81 185
-16 35 -29 68 -29 75 -1 29 -31 52 -70 53 -23 1 -40 -4 -41 -10z"/>
<path d="M13094 6792 c-5 -4 -20 -29 -31 -57 -12 -27 -32 -72 -44 -100 -13
-27 -24 -52 -24 -55 -1 -3 -8 -21 -17 -40 -55 -123 -98 -221 -98 -224 0 -2 14
-3 30 -4 28 -1 33 5 57 58 l26 59 51 3 c28 2 83 2 122 0 l72 -4 17 -46 c23
-61 32 -72 61 -72 26 0 42 19 26 29 -7 4 -13 16 -15 26 -2 11 -11 36 -20 55
-8 19 -43 100 -77 180 -33 80 -66 157 -73 173 -12 26 -40 35 -63 19z m74 -195
c23 -59 42 -108 42 -110 0 -1 -42 -2 -92 -2 -58 1 -93 5 -93 12 0 21 89 223
95 216 4 -5 25 -56 48 -116z"/>
<path d="M14699 6793 c0 -5 -1 -114 -1 -243 l-1 -235 29 0 29 0 1 230 c0 127
-2 236 -4 243 -4 13 -51 17 -53 5z"/>
<path d="M15250 6555 l0 -245 28 2 29 2 0 190 c-1 138 2 191 11 194 7 2 12 -3
12 -12 0 -9 4 -16 8 -16 5 0 15 -12 23 -27 8 -16 17 -30 20 -33 3 -3 35 -48
70 -100 134 -196 137 -200 175 -200 28 0 34 4 35 23 1 28 1 392 0 434 -1 28
-4 32 -28 30 l-28 -2 0 -192 c0 -105 -3 -195 -7 -199 -5 -4 -8 0 -8 8 0 9 -4
18 -8 20 -4 2 -59 77 -122 168 -63 91 -121 172 -130 181 -8 8 -30 16 -47 17
l-33 2 0 -245z"/>
<path d="M10779 6500 c-15 -4 -24 -13 -25 -27 -1 -19 5 -20 81 -21 80 -1 83 0
88 23 4 23 1 25 -32 26 -20 0 -48 1 -62 3 -14 1 -37 -1 -50 -4z"/>
</g>
</svg>
